<svg id="Layer_1" data-name="Layer 1" xmlns="http://www.w3.org/2000/svg" viewBox="0 0 500 500"><defs><style>.cls-1{fill:#b4b6cc;fill-rule:evenodd;}</style></defs><path class="cls-1" d="M116,244.56c-.09,1.79-.1,3.62-.1,5.43a134.31,134.31,0,0,0,263.55,36.55L164,288.81l51.84-39.92Zm4.87-30.84,216.83-2.05-52.94,40.2,99.6,4.27c.09-2,.15-4.09.15-6.15a134.32,134.32,0,0,0-263.64-36.27ZM98.61,243.84l-47.11-2V214.42l51.34-.53a151.7,151.7,0,0,1,299,36.1c0,2.32,0,4.62-.17,6.91l46.79,2v26.9l-51,.55A151.73,151.73,0,0,1,98.49,250C98.49,247.93,98.55,245.88,98.61,243.84Z"/></svg>