<svg id="Layer_1" data-name="Layer 1" xmlns="http://www.w3.org/2000/svg" viewBox="0 0 500 500"><defs><style>.cls-1{fill:#b4b6cc;}</style></defs><path class="cls-1" d="M249.93,50C139.55,50,50,139.51,50,250s89.48,200,199.93,200S450,360.46,450,250,360.46,50,249.93,50m0,389.92c-75,0-133.81-39-161.83-92.57l4.29-1.59c7.26,11.9,16.8,22.33,29.58,36.43,15.76,17.34,65.56,50.75,127.89,50.75a184.65,184.65,0,0,0,157.4-87c2.52-.71,3.34-1.8,2.48-4,15-26.4,25.16-59.55,25.16-92,0-20.42-3-37-7.75-51.85a211.34,211.34,0,0,0-10.69-26.7,4.33,4.33,0,0,1-.72-2.56,6.53,6.53,0,0,1,1.79,2.17c2.9,5.3,9.36,18.24,12.41,26.67C434,209,441.42,224.57,441.42,250c0,103.9-85.06,190-191.49,190m-160-97L229.7,242.39l-11.95-6.81L93.2,339.16c-14-25.38-23.73-57.92-23.73-88.88,0-98.06,78.05-177.44,176.93-178L220.9,230.8l11.9,6.92,16-165.49c.3-2.08,1.68-2.08,1.68,0l1,174.52,28.38-16.68L252.69,72.19C349.84,74.82,430.38,153.14,430.38,250c0,31.22-9.49,63.81-23.79,89.35L282.16,235.65l-12,6.84,133.77,97c3.23,2.28,2.22,3.33-1.22,1.42L252.51,254.29v32.46l150.57,57.53c-31.53,51.46-88.51,84.38-153.66,84.38S128.11,395.78,96.53,344.22L247.4,286.66V254.2L91.2,344.43c-3.76,2-4.72.91-1.31-1.5m-3.62,1.75c-6.62-13.7-13.59-33-16.47-48.23a6.24,6.24,0,0,1,.09-2.41A7.46,7.46,0,0,1,71,296.39c4.54,14,8.46,26.57,18.8,45.49ZM441.11,216.51a7.94,7.94,0,0,1-1.08-2.26c-14.6-45-27-62.65-51-88.94C357.49,90.67,306,63.93,251.15,63.86c-104.77,0-189.76,85.05-189.76,189.8,0,31.17,6.78,58,12.22,71.57C80.05,340.9,91.09,362,91.64,363a5.4,5.4,0,0,1,.6,2.51,7.69,7.69,0,0,1-1.79-2.09c-3.19-4.61-16.2-28.07-20.27-38.29C61.39,302.78,54.86,278.47,54.86,253c0-108,87.41-195.61,195.48-195.61,96.49,0,174.35,67.05,190.77,156.83a5.14,5.14,0,0,1,0,2.34"/></svg>