<svg id="Layer_1" data-name="Layer 1" xmlns="http://www.w3.org/2000/svg" viewBox="0 0 500 500"><defs><style>.cls-1{fill:#b4b6cc;}</style></defs><path class="cls-1" d="M60.33,218.87c-9.91,15.06-13.16,31.27-7.69,48.82,4.43,14.08,13.45,25.07,24.42,34.52,14.65,12.73,31.55,21.63,49.44,28.64,34.86,13.67,71.21,19.47,108.34,20.74a384.57,384.57,0,0,0,54.1-2,343.21,343.21,0,0,0,55-10.33c23.43-6.55,45.84-15.43,66-29.23,12.46-8.53,23.52-18.45,31.31-31.6,7.65-12.77,10.65-26.48,7.43-41.27-2.61-12.17-9-22.27-17.27-31.29-12.6-13.56-28-23.18-44.57-31-19.8-9.44-40.62-15.57-62.07-19.81a340.09,340.09,0,0,0-45.27-6c-3.48-.19-6.87-.57-10.31-.88H235.91a12.15,12.15,0,0,1-1.66.4c-5.72.36-11.34.6-17,1.14a340.73,340.73,0,0,0-53.11,8.87c-24.06,6-47.21,14.42-68.36,27.46C81.88,194.71,69.4,205,60.33,218.87m232,70.15c-2.69,16.45-10.64,30.1-23.08,41.11-4.65,4.08-10.35,5.67-16.28,6.14-4.21.34-8.46.47-11,.58a346.32,346.32,0,0,1-42.53-3.55,305.56,305.56,0,0,1-41.69-8.15c-4.71-1.31-9.35-2.85-13.83-4.51-3.74-1.53-3.84-3.8-.76-6.26,29.52-23.53,63-38.56,99.6-47,9.51-2.21,19.14-4,29-3.24,7.38.49,14.12,2.64,18.19,9.6,2.87,4.72,3.26,10,2.36,15.25m92.91-76.73c1.6-3.13,3.17-6.31,4.83-9.43,2.1-4,4.25-5,8.25-2.92,19,9.35,30.68,24.23,34.1,45.37a29.56,29.56,0,0,1,0,4.61c.15,10.82-3.8,20.06-10.24,28.41-8.64,11.35-19.93,19.5-32.31,26.34a212.21,212.21,0,0,1-67.47,23.45c-1,.13-2.93-.15-3-.61a4.68,4.68,0,0,1,.37-3.73c3-4.34,6.31-8.58,9.57-12.86,11.59-15.32,21.42-31.75,30.54-48.62,8.89-16.44,17-33.27,25.4-50M226.11,174.06c7.3-7.67,16.38-10.94,26.84-11.26,26.35-.91,52.27,2.38,77.78,8.73,6.91,1.66,13.78,3.85,20.58,6a28.59,28.59,0,0,1,6.13,3c2.35,1.64,2.5,3.76.56,5.87a19,19,0,0,1-4.44,3.61,407.53,407.53,0,0,1-84.91,40.31c-11.37,3.68-22.89,6.61-34.9,7.21a33.22,33.22,0,0,1-15.1-2.44c-7.74-3.53-10.13-9.94-10-19.58,1.29-14.45,5.93-29.36,17.43-41.48m-57.65-1.15c4-1,8.31-1.1,12.52-1.15,3.56,0,4.35,1.7,2.24,4.54-5.83,7.73-11.86,15.15-17.57,22.9-20.57,28-38.4,57.37-50.22,90.12a38.94,38.94,0,0,1-4.26,8.54c-2.32,3.76-5,4.41-9.12,3.05-5-1.86-9-5.09-12.81-8.66-8.42-8.14-16-17-19.84-28.24-1.52-4.4-2.07-9.13-3.15-13.72a2.39,2.39,0,0,1,.59-.17c.14-11.46,5-21.09,12.27-29.71,8.26-9.94,18.66-17.4,29.79-23.82,18.65-10.87,38.79-18,59.56-23.68"/></svg>