<svg id="Layer_1" data-name="Layer 1" xmlns="http://www.w3.org/2000/svg" viewBox="0 0 500 500"><defs><style>.cls-1{fill:#b4b6cc;}</style></defs><path class="cls-1" d="M288.41,105.08a150.15,150.15,0,0,0-75.82-.17l38,104.84Z"/><path class="cls-1" d="M399.84,250.09A149.59,149.59,0,0,0,390.38,197L319.11,383c47.8-25.06,80.73-75.18,80.73-132.88"/><path class="cls-1" d="M325.47,120.49,281.53,241.38H219.67L175.57,120a151.72,151.72,0,0,0-42.34,36.21l62.64,162.4,22.94-59.33H279l22.93,59.33,63.23-164.33a150.1,150.1,0,0,0-39.66-33.76"/><path class="cls-1" d="M250.09,50C140,50,50,139.8,50,250.11,50,360.06,140,450,250.09,450S450,360.06,450,250.11C450,139.8,360.29,50,250.09,50m0,374.42c-96,0-174.53-78.32-174.53-174.34,0-96.2,78.49-174.65,174.53-174.65s174.53,78.45,174.53,174.65c0,96-78.49,174.34-174.53,174.34"/><path class="cls-1" d="M248.78,291.06,210.13,391.35l-.18,3.11a148.16,148.16,0,0,0,40.14,5.39,151.44,151.44,0,0,0,37.82-4.75l-.45-3.75Z"/><path class="cls-1" d="M100.2,250.09a149.6,149.6,0,0,0,78,131.24l-69.46-181a147.19,147.19,0,0,0-8.5,49.8"/></svg>