<svg id="Layer_1" data-name="Layer 1" xmlns="http://www.w3.org/2000/svg" viewBox="0 0 500 500"><defs><style>.cls-1{fill:#b4b6cc;}</style></defs><path class="cls-1" d="M380,179a70.6,70.6,0,0,0-44.12,14.76,70.58,70.58,0,0,0-86.16.13,70.71,70.71,0,0,0-86-.07,70.85,70.85,0,1,0,.14,112.61,70.57,70.57,0,0,0,86.06-.24,70.58,70.58,0,0,0,86.16-.05A70.86,70.86,0,1,0,380,179m-1.78,133.63A62.8,62.8,0,0,1,336,295.53c-12.16,11-26.91,17.46-43.94,17.2a62.22,62.22,0,0,1-42.12-17,63,63,0,0,1-86.11.24A64.72,64.72,0,0,1,157.6,301,62.67,62.67,0,0,1,63,274.52a31.44,31.44,0,0,1-6.47-1.22,68.3,68.3,0,0,1,61.89-91.42,31.85,31.85,0,0,1,3,5.51h.32a62.82,62.82,0,0,1,43.05,18l-.51-8.87a68.37,68.37,0,0,1,40.07-14.74,33.21,33.21,0,0,1,3.2,5.52c15.79.19,31.94,7.17,43.1,17.88l-.48-8.44a67.07,67.07,0,0,1,40.32-15,29.09,29.09,0,0,1,3,5.47h.32c15.91.22,31.78,7.5,43.13,18.34l-.56-8.93a68.49,68.49,0,0,1,40.33-15.07c.54.82,2.88,5.53,3.26,5.53,33.69,1.57,60.6,21.75,62,63.65,1.07,34.57-29.08,62.35-63.65,61.88"/><path class="cls-1" d="M142.45,273.26a66.18,66.18,0,0,1-4-24.09,67.43,67.43,0,0,1,14.66-41.33c3.48-.1,7-.16,9-.16a59.23,59.23,0,1,0-54.29,100.26c.94-1.15,2-2.41,3-3.67a57.87,57.87,0,0,0,9.34.9,54.53,54.53,0,0,0,33.72-11.11l8.25.16a63.46,63.46,0,0,1-13.24-19.8,30,30,0,0,1-6.41-1.16m-22.27,29.08a52.17,52.17,0,1,1,30.22-95.17,70.64,70.64,0,0,0,0,85.87c-6.36,4.2-17.15,9.45-30.22,9.3"/><path class="cls-1" d="M173.2,233.22a11.13,11.13,0,0,1,3.21-4.49c-1.91-6.87-7.46-14.09-12.53-19.27a60.3,60.3,0,0,0-16.4,39.86c-.29,10.47,3.72,27,11.7,36.26,1.52,1.78,2.71,3.75,4.81,5.56l.21-7.52a52.2,52.2,0,0,0,11.72-32.68,54.33,54.33,0,0,0-2.72-17.72m-9.34,46.55a52,52,0,0,1-.09-59.27,52.05,52.05,0,0,1,.09,59.27"/><path class="cls-1" d="M259,233.15a10.74,10.74,0,0,1,3.23-4.52c-1.66-5.86-7.61-14.42-12.37-19.16a59.1,59.1,0,0,0,.3,81.46l.19-7c6.36-10.24,11.18-20.13,11.34-33.06a54.14,54.14,0,0,0-2.69-17.7m-9.14,46.27a52.06,52.06,0,0,1-.06-58.71,52.21,52.21,0,0,1,.06,58.71"/><path class="cls-1" d="M314.78,273a68.07,68.07,0,0,1,10.67-65.39l8.87,0c-11.05-10.39-25-16.68-40.57-16.91A59.06,59.06,0,0,0,252.22,207a62.27,62.27,0,0,1,17.22,43.92,63.64,63.64,0,0,1-17,42.25,58.72,58.72,0,0,0,27.42,14.59c.89-1.2,1.92-2.45,2.93-3.72a56.31,56.31,0,0,0,9.34.9c13.42.23,24.74-4.69,34.34-11.17l7.55-.2A64.45,64.45,0,0,1,321.2,274.2a29.9,29.9,0,0,1-6.42-1.18m-22.56,29.11a52,52,0,0,1-29.08-9.28,70.59,70.59,0,0,0-.11-85.59,52,52,0,0,1,59.57-.13,70.64,70.64,0,0,0,.11,85.62c-6.34,4.2-17.26,9.59-30.49,9.38"/><path class="cls-1" d="M434.66,228.43c-4.72-16.73-28.46-37.83-54.75-37.83a59.37,59.37,0,0,0-41.49,16.22,63.37,63.37,0,0,1,17.33,44c-.21,15.14-6.33,31.39-17.14,42.27a60.07,60.07,0,0,0,27.47,14.52c.9-1.15,1.91-2.41,2.94-3.72a52.4,52.4,0,0,0,9.32.93,55.18,55.18,0,0,0,55.81-54.2,55.86,55.86,0,0,0-2.75-17.72,10.87,10.87,0,0,1,3.26-4.5M378.4,302a51.88,51.88,0,0,1-29-9.28,70.54,70.54,0,0,0-.08-85.62,51.71,51.71,0,0,1,30.53-9.44A52.17,52.17,0,1,1,378.4,302"/><path class="cls-1" d="M345.22,233a11.3,11.3,0,0,1,3.23-4.49c-1.86-6.77-7.45-14.09-12.53-19.23a59.15,59.15,0,0,0,.68,81.83l.1-7.23c7.58-10.34,11-19.53,11.26-33.18a53.84,53.84,0,0,0-2.74-17.7M336,279.38a51.57,51.57,0,0,1-9.11-30.2,52.09,52.09,0,0,1,9-28.62,51.61,51.61,0,0,1,.11,58.82"/><path class="cls-1" d="M228.65,273.17a69,69,0,0,1-4-24.11,67.89,67.89,0,0,1,14.75-41.32l8.49-.19c-11.25-10.41-24.53-16.48-40.34-16.68A58.46,58.46,0,0,0,166.31,207a62.26,62.26,0,0,1,17.37,44,62.91,62.91,0,0,1-17.37,42.42,60,60,0,0,0,27.41,14.44c.91-1.22,1.86-2.46,2.94-3.76a53.43,53.43,0,0,0,9.32.92c11.14.17,25.56-3.58,34.05-11.27l7.95,0a63,63,0,0,1-12.88-19.46,31.13,31.13,0,0,1-6.45-1.14M206,302.23a51.65,51.65,0,0,1-28.83-9.11,70.5,70.5,0,0,0-.07-86,52,52,0,0,1,59.35.09,70.61,70.61,0,0,0,.06,85.54c-6.33,4.22-17.3,9.65-30.51,9.43"/></svg>