<svg id="Layer_1" data-name="Layer 1" xmlns="http://www.w3.org/2000/svg" viewBox="0 0 500 500"><defs><style>.cls-1{fill:#b4b6cc;}</style></defs><path class="cls-1" d="M62.84,327.52c2,10.32,4.5,20.53,8.45,30.33A85.72,85.72,0,0,0,79.68,374a60.25,60.25,0,0,0,26.08,21.1,111.83,111.83,0,0,0,13.29,4.85,184.75,184.75,0,0,0,38.66,6.81c12.52,1.07,25.12,1.95,37.7,2.41,18.17.68,36.29.91,50.48,1.23,15.21-.21,26.39-.34,37.55-.55,15.7-.36,31.45-.95,47.21-2.12a301.47,301.47,0,0,0,35-4.14,124.35,124.35,0,0,0,27.68-8.08c14.76-6.49,25.9-16.73,32.6-31.48A131.14,131.14,0,0,0,433,344.88a292.32,292.32,0,0,0,7.61-38.22c1.7-12.74,3.12-25.55,4.41-38.34s2.08-25.55,2.35-38.32c.47-20.55.68-41.09-1.08-61.59a100.54,100.54,0,0,0-4.46-23.19c-4.1-12.79-11.09-23.63-21.88-31.79a78.44,78.44,0,0,0-22.9-11.49c-11-3.58-22.29-5.49-33.73-6.89-13.92-1.69-28-2.88-42-3.53q-21.83-1.11-43.6-1.58c-19.45-.47-38.94-.36-58.47,0-22,.44-43.89,1.35-65.79,3.33-10.91,1-21.82,2.13-32.6,4.12a122.18,122.18,0,0,0-26.56,7.71c-14.55,6.29-25.68,16.26-32.62,30.65a85.34,85.34,0,0,0-7.39,25.72,229,229,0,0,0-2,28.41c-.14,12.22-.23,24.4,0,36.6.34,21.85,2.42,43.59,4.88,65.31,1.36,12,3.25,23.86,5.56,35.69M72.24,209c.26-10.45.63-20.9,1.29-31.31.55-9.24,1.57-18.34,4.33-27.28,3.53-11.33,9.56-20.89,19.32-27.91a67.12,67.12,0,0,1,18.14-8.9,115.72,115.72,0,0,1,21.91-4.8c10.3-1.31,20.66-2.5,31.05-3.5,7.24-.7,14.55-1.09,21.87-1.43,12.09-.55,24.18-1.25,36.27-1.36,17.76-.17,35.55-.16,53.34.17,13.44.27,26.86,1,40.41,1.76,14.34.8,28.77,2.22,43,4.41,9.29,1.38,18.43,3.27,27.06,6.87,10.61,4.34,19.39,10.89,25.55,20.69a61.71,61.71,0,0,1,7.43,18.28,123.11,123.11,0,0,1,2.91,19.76A569.56,569.56,0,0,1,427.59,234c-.27,11.79-1.08,23.55-2.26,35.27-.9,9.64-1.77,19.22-2.93,28.77-1.92,15.58-4.44,31-9.36,46.06a90.39,90.39,0,0,1-6.11,14.95,53.74,53.74,0,0,1-28.11,25.66A106.35,106.35,0,0,1,355,391.05a400.27,400.27,0,0,1-42.24,4.18c-19.28,1-38.75,1.56-58.17,1.56H250v.28c-16.76-.39-33.51-.61-50.32-1.27-12.21-.48-24.44-1.38-36.57-2.38a192.71,192.71,0,0,1-30-4.74,83,83,0,0,1-14.15-4.92,53.56,53.56,0,0,1-26.76-26.43,123.59,123.59,0,0,1-8.61-24.83,287,287,0,0,1-6.16-35.38c-1.39-13.34-2.78-26.69-3.81-40A455.17,455.17,0,0,1,72.24,209"/><path class="cls-1" d="M132.65,137.39c.48,7.06.92,14.13,1.37,21.17.71,11.58,1.5,23.16,2.21,34.71.61,9.5,1.19,19,1.82,28.45.71,11,1.53,22.07,2.29,33.05.53,8.82,1.11,17.64,1.79,26.45.82,12,1.74,24,2.57,36.07.8,9.79,1.46,19.64,2.24,29.45.92,11.35,1.87,22.65,2.82,34,.05,1,.21,1.94.34,2.88,7.11,1.57,33.26,2.86,39.42,2.75.24-.85.5-1.73.77-2.63,3.37-12.39,6.71-24.83,10.21-37.18A100.93,100.93,0,0,1,208.13,327c4-7.87,10.44-12.27,19.18-13.63a147.44,147.44,0,0,1,22.78-1.75,140.84,140.84,0,0,1,23,1.83c8.29,1.41,14.55,5.63,18.44,13.11.82,1.62,1.66,3.24,2.4,4.93a137.63,137.63,0,0,1,6.66,19c3.12,11.1,6,22.21,9,33.36.26.88.55,1.75.79,2.54,7.69.44,35.81-1.66,39.54-2.95,7.35-88,12.85-176.22,18.43-264.62A225.27,225.27,0,0,0,341,116.74c-.21.77-.34,1.34-.47,1.93q-5.52,24.95-11.05,49.89-8.17,36.49-17.84,72.58A131.73,131.73,0,0,1,303.46,264c-6.73,14.11-18.07,21.88-33.52,24a131.85,131.85,0,0,1-17.32,1.1c-8.5,0-17,0-25.31-1.58-10.48-1.9-19.13-6.76-25.74-15.2a55.85,55.85,0,0,1-7.57-14,233.39,233.39,0,0,1-8.22-26.21c-9.12-35.15-17.05-70.55-24.7-106-.71-3.09-1.42-6.13-2.16-9.36a242,242,0,0,0-27.31,2c0,.75,0,1.24,0,1.69.3,5.65.75,11.28,1,16.94"/></svg>