<svg id="Layer_1" data-name="Layer 1" xmlns="http://www.w3.org/2000/svg" viewBox="0 0 500 500"><defs><style>.cls-1{fill:#b4b6cc;}</style></defs><path class="cls-1" d="M250,50C139.73,50,50,139.73,50,250s89.73,200,200,200,200-89.72,200-200S360.29,50,250,50m0,394.48C142.78,444.48,55.54,357.24,55.54,250S142.78,55.52,250,55.52,444.46,142.73,444.46,250,357.28,444.48,250,444.48"/><path class="cls-1" d="M136,171.48c.19.16.37.33.57.47,0,0,.15-.14.15-.16,3.92-4.89,7.84-9.77,11.7-14.62,1.43-1.77,2.87-3.54,4.27-5.34a5.92,5.92,0,0,0-4.77-9.76,6.47,6.47,0,0,0-4.86,2.71c-1.74,2.15-3.44,4.32-5.17,6.47-3.55,4.4-7.06,8.84-10.57,13.26,1.81,1.48,3.66,2.93,5.49,4.4,1.08.86,2.14,1.7,3.19,2.57"/><path class="cls-1" d="M250,59C144.51,59,59,144.51,59,250s85.49,191,191,191,191-85.53,191-191S355.5,59,250,59M219.16,70.91l17.89-2,13,37.8L263,68.93l17.9,2,2,53.75-13.93-2-1.35-35.82L255,122.67H245L232.41,86.85l-1.29,35.82-13.92,2ZM98.57,159.38c-1.4-1.17-2.84-2.35-4.31-3.49,0,0-.49-.4-.49-.42.25-.31.46-.62.75-.92,3.74-4.65,7.4-9.28,11.13-13.92,4.34-5.39,8.65-10.83,13-16.21.83-1,1.62-2.06,2.47-3.11a13.55,13.55,0,0,1,5.57-4,13,13,0,0,1,17.1,9.09,13.63,13.63,0,0,1-.32,7.17c.32-.26.65-.56,1-.81a14.42,14.42,0,0,1,22.92,9.93,15.61,15.61,0,0,1-.46,5.72c-1.09,3.56-3.62,6.28-5.91,9.12-4.46,5.56-8.92,11.09-13.33,16.64-3.7,4.64-7.43,9.24-11.13,13.87-.28.37-.53.69-.83,1,0,.08-.35-.24-.43-.32-1.35-1.09-2.75-2.17-4.1-3.29-5.43-4.31-10.79-8.65-16.23-12.95S104,163.7,98.57,159.38M250,369.38A119.38,119.38,0,1,1,369.4,250,119.37,119.37,0,0,1,250,369.38m113.7-181.09-6.86-11.74,23.62-31-35.43,16.24-10-9.21,32.28-42.44,10,9.24-18.66,24.47,29.81-13.67,8.74,10.88-19.89,26.08,27.93-12.83L412.19,166Z"/><path class="cls-1" d="M135.59,137.39a6,6,0,0,0-8.08-7c-1.66.69-2.68,2.16-3.75,3.57-4.25,5.23-8.41,10.44-12.59,15.67a9.08,9.08,0,0,0-.88,1.2c.79.69,1.66,1.35,2.53,2,2.24,1.81,4.49,3.61,6.69,5.42,2.25-2.79,4.42-5.52,6.64-8.29s4.41-5.5,6.63-8.25c1.07-1.38,2.31-2.65,2.81-4.37"/><path class="cls-1" d="M136.68,250H250V136.66A116.51,116.51,0,0,0,136.68,250"/><path class="cls-1" d="M250,363.35A116.54,116.54,0,0,0,363.36,250H250Z"/></svg>