<svg id="Layer_1" data-name="Layer 1" xmlns="http://www.w3.org/2000/svg" viewBox="0 0 500 500"><defs><style>.cls-1{fill:#b4b6cc;}</style></defs><path class="cls-1" d="M410.41,144.38c-40.09-43-105.64-52.31-160.76-52.31-55.6,0-123.17,9.28-162.54,54.8-.74.8-1.26,1.65-1.94,2.51-19.31,23-31.23,56.05-31.23,100.29,0,136.46,111.31,158.26,195.71,158.26,85.12,0,196.41-21.8,196.41-158.26,0-44.24-11.89-77.29-31.33-100.29-1.46-1.65-2.94-3.33-4.32-5m-288.32,26.8c26.31-40.46,76.36-50.47,127.56-50.47,51.37,0,100.12,9.37,127,49.21.47.93,1.14,1.84,1.64,2.73-45.51,26.66-97.34,27.62-128.64,94.47-34-64.9-85.26-65.35-130.27-91.05.83-1.65,1.77-3.23,2.71-4.89m127.56,208.1c-75.62.65-146.94-21.15-146.94-129.61,0-8.08,0-16.18,1.27-23.06.42-1.5.74-3,1.16-4.53,25.5,8.56,50.92,17.14,76.44,25.74,29.94,12.49,50,29.93,68.07,69.15,18.16-39.22,37.55-59.17,68.21-71.64q38.58-13.74,77-27.47a12.49,12.49,0,0,1,.48,2,208.73,208.73,0,0,1,1.94,29.89c0,108.42-71.93,130.22-147.64,129.57"/></svg>